<?xml version="1.0" encoding="UTF-8" standalone="no"?>
<!-- Created with Inkscape (http://www.inkscape.org/) -->

<svg
   width="400"
   height="242"
   viewBox="0 0 105.83333 64.029166"
   version="1.1"
   id="svg1"
   xml:space="preserve"
   xmlns:xlink="http://www.w3.org/1999/xlink"
   xmlns="http://www.w3.org/2000/svg"
   xmlns:svg="http://www.w3.org/2000/svg"><defs
     id="defs1"><linearGradient
       id="linearGradient35"><stop
         style="stop-color:#006837;stop-opacity:1;"
         offset="0.35458937"
         id="stop34" /><stop
         style="stop-color:#006837;stop-opacity:0;"
         offset="1"
         id="stop35" /></linearGradient><linearGradient
       id="linearGradient33"><stop
         style="stop-color:#006837;stop-opacity:1;"
         offset="0.16231884"
         id="stop32" /><stop
         style="stop-color:#006837;stop-opacity:0;"
         offset="1"
         id="stop33" /></linearGradient><linearGradient
       id="linearGradient29"><stop
         style="stop-color:#006837;stop-opacity:1;"
         offset="0.44251207"
         id="stop29" /><stop
         style="stop-color:#006837;stop-opacity:0;"
         offset="1"
         id="stop30" /></linearGradient><linearGradient
       xlink:href="#linearGradient35"
       id="linearGradient30"
       x1="1615.5077"
       y1="859.06604"
       x2="1624.1321"
       y2="855.01941"
       gradientUnits="userSpaceOnUse"
       gradientTransform="matrix(0.53577027,0,0,0.53577027,883.90102,-28.822097)" /><linearGradient
       xlink:href="#linearGradient33"
       id="linearGradient32"
       x1="1585.4594"
       y1="780.16718"
       x2="1611.3929"
       y2="780.16718"
       gradientUnits="userSpaceOnUse"
       gradientTransform="matrix(0.53577027,0,0,0.53577027,883.90102,-28.822097)" /><linearGradient
       xlink:href="#linearGradient29"
       id="linearGradient34"
       gradientUnits="userSpaceOnUse"
       x1="1601.04"
       y1="883.25439"
       x2="1611.3549"
       y2="878.68414"
       gradientTransform="matrix(0.53577027,0,0,0.53577027,883.90102,-28.822097)" /></defs><g
     id="g268"
     transform="matrix(0.21677988,0,0,0.21677988,-293.95351,-56.150713)"
     style="display:inline"><path
       style="fill:#006837;fill-opacity:1;stroke:none;stroke-width:0.53577;stroke-opacity:1"
       d="m 1393.0818,553.46741 c -10.8961,-1.91451 -16.7137,-4.80136 -23.6787,-11.75009 -2.547,-2.541 -5.6909,-6.53276 -6.9862,-8.87048 -2.4003,-4.3316 -5.2262,-12.10841 -5.992,-16.49011 L 1356,513.92588 c 21.7734,18.77705 45.1939,21.23113 81.9178,14.36444 38.9068,-7.27468 63.6769,-14.20508 110.3849,-30.88415 22.5862,-8.06539 201.1391,-69.18597 201.1391,-69.18597 l 1.2788,3.2197 -81.4436,31.89151 c -101.8169,39.86942 -134.3171,51.6267 -158.2475,60.35439 -12.0485,4.39416 -30.2904,11.36336 -40.5375,15.48704 -30.7613,12.379 -39.519,14.59217 -59.1848,14.95655 -9.2018,0.17052 -14.604,-0.0257 -18.2254,-0.66198 z m 220.2855,-60.21225 c 70.4922,-28.21513 129.0055,-51.30147 129.0055,-51.30147 l 1.2545,2.37473 c 0,0 -36.3474,16.97204 -157.8002,72.86767 l -59.5822,27.42123 -20.5226,-0.0308 -20.5225,-0.0314 z m -36.5882,50.81755 c 0.3426,-0.3013 8.1651,-4.86311 17.3838,-10.1373 l 16.761,-9.58948 h 113.5318 c 62.4424,0 113.5253,0.0736 113.5173,0.16347 -0.013,0.0898 -1.4363,4.5774 -3.1744,9.97223 l -3.1598,9.80872 -127.7413,0.16512 c -70.2577,0.0909 -127.461,-0.0814 -127.1184,-0.38276 z m -184.4354,-23.71645 c -15.1374,-1.83191 -26.823,-5.81674 -30.4886,-10.3965 -5.4722,-6.83738 -4.835,-22.24092 1.4505,-35.05587 2.9802,-6.07605 5.0002,-8.30884 7.2313,-7.993 1.3905,0.19685 1.5278,0.52572 1.4545,3.48693 -0.044,1.79827 -0.8752,5.47654 -1.8464,8.17395 -4.1731,11.59163 -4.6371,16.44861 -2.0936,21.91095 2.7493,5.90362 8.8703,9.88534 18.1867,11.83019 6.6213,1.3823 28.5706,1.94275 37.8859,0.96737 21.821,-2.28483 35.5938,-5.83566 122.9949,-31.71033 38.3712,-11.35964 70.1891,-20.65392 70.7063,-20.65392 0.517,0 1.3139,0.45011 1.7705,1.00023 1.3572,1.63546 -0.1671,3.93556 -3.4024,5.13387 -4.9006,1.8151 -124.5283,38.91673 -137.4066,42.61569 -14.6493,4.20756 -29.5533,7.60312 -41.6498,9.48909 -10.1555,1.58335 -35.9258,2.2745 -44.7932,1.20135 z m -1.381,-16.26704 c -8.117,-1.15684 -14.174,-3.56729 -17.2556,-6.86714 -1.4872,-1.5925 -1.6549,-2.3617 -1.8565,-8.51942 -0.6392,-19.51628 9.2515,-53.55626 20.2834,-69.80849 5.8916,-8.67943 15.7514,-16.99636 24.4331,-20.60951 4.3226,-1.79905 14.3983,-3.78996 24.1208,-4.76608 12.9282,-1.29804 41.004,0.009 43.1112,2.00736 1.4098,1.33691 -1.3027,5.65966 -7.8742,12.54872 -16.272,17.05814 -24.6311,36.05539 -29.3306,66.65872 -2.3023,14.99304 -3.5426,18.83105 -7.3606,22.77503 -3.4908,3.6061 -6.5384,4.74491 -15.829,5.91493 -7.5776,0.95432 -27.543,1.36408 -32.442,0.66588 z m 88.6787,-15.32879 c 0,-0.36778 9.12,-5.30406 18.0199,-9.75341 21.1134,-10.5553 52.6044,-20.00348 92.1649,-27.65205 19.6577,-3.80055 20.5985,-4.03238 20.5985,-5.0759 0,-1.94654 2.5645,-3.23674 6.4336,-3.23674 2.0907,0 4.1467,0.21353 4.5692,0.47452 0.9231,0.57052 1.0221,5.89315 0.1404,7.54083 -0.484,0.90411 -1.7926,1.27406 -5.7219,1.61748 -20.5291,1.7942 -49.2018,7.91856 -78.333,16.73166 -16.7678,5.07276 -43.972,14.15009 -51.1052,17.05258 -6.6184,2.69286 -6.7664,2.7432 -6.7664,2.30103 z m -2.4217,-23.69072 c 0.5226,-1.02574 1.4536,-3.61517 2.0689,-5.75429 3.5443,-12.32388 17.6241,-31.17314 30.5749,-40.93177 13.4013,-10.09819 31.9435,-15.21944 48.0844,-13.28069 l 3.4331,0.41237 v 16.92475 16.92476 l -1.4713,0.59764 c -0.8092,0.3287 -5.2968,1.22841 -9.9722,1.99936 -32.5366,5.36498 -55.9045,12.97218 -70.8377,23.06069 l -2.8305,1.91214 z M 1628.3439,445.732 c 0.06,-21.47623 -0.2704,-23.66687 -5.2229,-34.63547 -2.1612,-4.78688 -2.2798,-5.34354 -1.338,-6.28532 0.9417,-0.94176 1.2561,-0.79896 3.55,1.61242 3.216,3.38077 7.5559,12.1375 9.344,18.85397 1.951,7.32749 1.954,19.4618 0.013,26.81056 -1.4684,5.54106 -4.4897,12.23268 -5.6811,12.58168 -0.5033,0.14748 -0.6967,-5.40967 -0.6589,-18.93784 z m 55.7199,-5.57782 c 0.3192,-2.068 0.561,-7.58541 0.5372,-12.26093 -0.041,-8.09256 -0.1633,-8.85124 -2.5461,-15.79444 -2.8229,-8.22452 -2.8051,-11.22825 0.046,-7.74653 2.6575,3.24559 6.0961,10.82705 7.1181,15.69399 1.2052,5.74088 1.2153,9.91633 0.038,15.47413 -1.2052,5.6872 -2.6215,8.3938 -4.392,8.3938 -1.3124,0 -1.3521,-0.18624 -0.8004,-3.76002 z m -70.3601,-9.95261 c -0.745,-0.47108 -0.9222,-1.68443 -0.7596,-5.20507 0.2679,-5.79909 -1.0243,-9.84154 -4.4849,-14.02929 -1.4365,-1.73844 -2.6119,-3.75003 -2.6119,-4.4702 0,-1.15675 0.2833,-1.25627 2.4296,-0.85361 4.1208,0.77308 5.8684,2.08749 7.6692,5.76806 2.1776,4.45073 3.1162,10.22432 2.3991,14.75504 -0.6726,4.24955 -2.2011,5.57819 -4.6415,4.03507 z m 32.278,-5.75139 c -0.4044,-0.26422 -0.7477,-2.12329 -0.7627,-4.13125 -0.033,-4.38912 -2.1095,-9.24003 -4.8104,-11.23685 -3.0063,-2.22255 -2.4777,-3.43014 1.3586,-3.10512 4.4726,0.3789 7.8755,6.04089 7.886,13.12113 0.013,5.07748 -1.2611,6.92691 -3.6715,5.35209 z m 24.8648,-3.82342 c -0.444,-0.18342 -0.6042,-1.49601 -0.4183,-3.42959 0.3399,-3.53759 -1.4907,-8.03027 -3.7689,-9.24949 -1.8415,-0.98551 -1.7256,-3.26915 0.1656,-3.266 4.2232,0.007 8.2946,5.38481 8.3232,10.99365 0.021,4.4388 -1.4471,6.13053 -4.3016,4.95143 z m 28.1837,-4.02356 c -0.3595,-0.26423 -0.6682,-1.73156 -0.6856,-3.26074 -0.027,-2.32602 -0.4473,-3.20553 -2.5733,-5.38281 -1.3977,-1.43136 -2.3282,-2.81556 -2.0678,-3.07597 0.8413,-0.84127 5.8232,1.3775 7.1657,3.19141 1.623,2.19264 1.9059,7.46747 0.4499,8.38824 -1.1801,0.74632 -1.4416,0.7623 -2.2889,0.13987 z m 16.547,-6.33254 c 0.2274,-1.94737 -0.065,-2.63169 -1.8317,-4.28157 l -2.102,-1.96378 h 1.7542 c 2.6862,0 5.7145,3.35303 5.4556,6.04047 -0.1672,1.73511 -0.5174,2.16983 -1.8761,2.32809 -1.5557,0.18121 -1.652,0.0351 -1.4,-2.12321 z"
       id="path7" /><path
       d="m 1614.3522,492.59478 18.5004,3.2048 m -17.1304,-34.73685 4.5151,2.13032 m 6.5936,51.74442 50.4913,-26.16801 50.2191,-25.9197 11.1378,0.17867 11.1379,0.17866 -12.2739,15.68375 -10.3533,14.43342 23.8248,-15.84728 21.904,-14.5968 h 12.6116 13.3504 l -20.7161,26.83868 -19.605,25.46695 h -14.0396 -14.0399 l 2.2913,-2.45186 21.8413,-23.64325 -3.9234,2.05896 -19.8803,13.83516 -14.649,10.20099 h -14.6857 -14.6852 l 6.5497,-7.0286 8.6351,-8.98995 6.1104,-6.5233 4.0253,-4.56171 -3.2694,2.35672 -19.2303,13.5517 -15.9609,11.19514 h -23.5452 l -23.2728,-0.24859 z m 1.101,-50.88081 4.601,-4.95764 z"
       style="fill:#ff0000;fill-opacity:1;stroke:none;stroke-width:2.47127"
       id="path1-4" /><path
       style="opacity:1;fill:#006837;fill-opacity:1;stroke:none;stroke-width:0.24715;stroke-linecap:round;stroke-linejoin:bevel;stroke-dasharray:none;stroke-opacity:1"
       d="m 1417.3583,391.92604 c 15.4527,-13.49739 38.8947,-25.66256 59.8215,-25.66256 6.5124,0 13.8526,0.27231 21.3679,0.69813 26.9428,1.52666 56.136,5.02658 57.5181,5.02658 1.7678,0 126.2944,8.27295 177.3927,14.73599 l -0.116,4.68801 -220.6978,-3.43729 c -16.5187,0 -28.2074,-6.21218 -44.1394,-6.21218 -10.1357,0 -34.8013,3.15148 -51.1473,10.16332 z"
       id="path2" /><path
       style="opacity:1;fill:#ff0000;fill-opacity:1;stroke:none;stroke-width:0.247151;stroke-linecap:round;stroke-linejoin:bevel;stroke-dasharray:none;stroke-opacity:1"
       d="m 1794.5646,515.18581 h 45.9375 c 23.6019,-125.10395 -67.899,-255.96529 -208.3644,-255.96529 -75.7888,0 -128.4985,32.91702 -167.2807,78.12555 -18.2816,21.31099 -18.5011,29.76545 -28.931,40.19534 17.5603,-7.81876 31.371,-11.64161 41.2538,-11.27793 6.7065,0.14152 12.778,0.144 21.3679,0.69813 32.8458,-32.84587 70.855,-60.31751 130.8621,-60.31751 118.3619,0 189.8667,116.3157 165.1548,208.54171 z"
       id="path6" /><path
       style="opacity:1;fill:url(#linearGradient32);stroke:none;stroke-width:0.247151;stroke-linecap:round;stroke-linejoin:bevel;stroke-dasharray:none;stroke-opacity:1"
       d="m 1733.4585,386.72418 13.7788,2.19074 v 2.69742 l -13.8944,-0.20015 z"
       id="path8" /><path
       style="opacity:1;fill:url(#linearGradient30);stroke:none;stroke-width:0.247151;stroke-linecap:round;stroke-linejoin:bevel;stroke-dasharray:none;stroke-opacity:1"
       d="m 1749.0471,428.35536 1.1234,3.29996 3.8921,-1.50282 -1.3944,-3.14922 z"
       id="path9" /><path
       style="opacity:1;fill:url(#linearGradient34);stroke:none;stroke-width:0.247151;stroke-linecap:round;stroke-linejoin:bevel;stroke-dasharray:none;stroke-opacity:1"
       d="m 1741.2949,442.37923 5.7484,-2.3771 0.3065,2.62587 -5.3,2.43572 z"
       id="path10" /></g></svg>
